<?xml version="1.0" standalone="no"?>
<!DOCTYPE svg PUBLIC "-//W3C//DTD SVG 20010904//EN"
 "http://www.w3.org/TR/2001/REC-SVG-20010904/DTD/svg10.dtd">
<svg version="1.0" xmlns="http://www.w3.org/2000/svg"
 width="35.000000pt" height="31.000000pt" viewBox="0 0 35.000000 31.000000"
 preserveAspectRatio="xMidYMid meet">

<g transform="translate(0.000000,31.000000) scale(0.100000,-0.100000)"
fill="#000000" stroke="none">
<path d="M256 287 c-30 -31 -42 -71 -30 -105 13 -37 34 -40 34 -5 0 15 7 50
15 77 8 27 13 51 11 54 -3 2 -16 -7 -30 -21z"/>
<path d="M295 258 c-26 -116 -25 -126 10 -88 12 14 19 37 19 67 1 54 -18 68
-29 21z"/>
<path d="M80 247 c0 -7 12 -30 26 -51 15 -21 39 -67 55 -101 33 -73 44 -83 58
-56 29 54 -6 167 -63 202 -35 22 -76 25 -76 6z"/>
<path d="M36 214 c-19 -49 21 -156 72 -192 32 -23 62 -29 62 -12 0 16 -54 131
-83 178 -29 45 -41 51 -51 26z"/>
<path d="M332 188 c-10 -30 -10 -31 3 -14 13 17 21 46 12 46 -1 0 -8 -15 -15
-32z"/>
<path d="M7 174 c-20 -20 3 -95 39 -125 15 -13 15 -11 -1 21 -10 19 -21 52
-24 73 -3 22 -9 35 -14 31z"/>
</g>
</svg>
